<svg width="20" height="20" viewBox="0 0 20 20" fill="none" xmlns="http://www.w3.org/2000/svg">
<g clip-path="url(#clip0_194_9689)">
<path d="M10 20C15.5228 20 20 15.5228 20 10C20 4.47715 15.5228 0 10 0C4.47715 0 0 4.47715 0 10C0 15.5228 4.47715 20 10 20Z" fill="#101010"/>
<path d="M16.4116 6.02203C15.9399 6.23134 15.4333 6.37283 14.9006 6.43643C15.4443 6.1109 15.8607 5.59504 16.0574 4.98108C15.541 5.2878 14.9758 5.50373 14.3864 5.61949C13.9068 5.10825 13.2229 4.78906 12.4662 4.78906C11.0138 4.78906 9.8359 5.96648 9.8359 7.41972C9.8359 7.62563 9.85909 7.82652 9.90368 8.01938C7.7173 7.9095 5.77893 6.8622 4.48147 5.27083C4.25492 5.65949 4.12524 6.11137 4.12524 6.59351C4.12524 7.50607 4.58972 8.31124 5.2955 8.78288C4.87769 8.76994 4.46905 8.65716 4.10375 8.45399V8.48723C4.10375 9.76193 5.0104 10.8248 6.21393 11.0666C5.99285 11.1271 5.76083 11.1588 5.52079 11.1588C5.35108 11.1588 5.18643 11.1427 5.02558 11.1125C5.36035 12.1572 6.3319 12.9178 7.48273 12.9392C6.58239 13.645 5.44792 14.0657 4.21577 14.0657C4.00354 14.0657 3.7938 14.0531 3.58789 14.0282C4.75227 14.7749 6.13478 15.2107 7.62045 15.2107C12.459 15.2107 15.1053 11.2022 15.1053 7.7259C15.1053 7.61178 15.1028 7.4985 15.0973 7.38563C15.6128 7.01272 16.0579 6.55098 16.4116 6.02203Z" fill="white"/>
</g>
<defs>
<clipPath id="clip0_194_9689">
<rect width="20" height="20" fill="white"/>
</clipPath>
</defs>
</svg>
