<svg width="20" height="20" viewBox="0 0 20 20" fill="none" xmlns="http://www.w3.org/2000/svg">
<path d="M10 20C15.5228 20 20 15.5228 20 10C20 4.47715 15.5228 0 10 0C4.47715 0 0 4.47715 0 10C0 15.5228 4.47715 20 10 20Z" fill="#101010"/>
<path fill-rule="evenodd" clip-rule="evenodd" d="M4.82162 9.88163C8.04219 8.61552 10.1862 7.77422 11.2628 7.36607C14.3269 6.20824 14.971 6.00833 15.3851 6C15.4771 6 15.6795 6.01666 15.8175 6.11662C15.928 6.19991 15.9556 6.3082 15.974 6.39149C15.9924 6.47479 16.0108 6.64971 15.9924 6.78299C15.8267 8.36563 15.109 12.2056 14.741 13.9715C14.5845 14.7212 14.2809 14.9711 13.9864 14.996C13.3423 15.046 12.8546 14.6129 12.2381 14.2464C11.2628 13.6716 10.7199 13.3135 9.77209 12.747C8.6771 12.0973 9.38562 11.7391 10.0113 11.1561C10.177 11.0061 13.0019 8.67382 13.0571 8.46558C13.0663 8.44059 13.0663 8.34064 13.0019 8.29066C12.9374 8.24068 12.8454 8.25734 12.7718 8.274C12.6706 8.29066 11.1247 9.22358 8.1158 11.0644C7.67412 11.3393 7.27845 11.4726 6.91959 11.4643C6.52392 11.4559 5.76939 11.2644 5.19889 11.0978C4.50877 10.8978 3.95667 10.7896 4.00268 10.4397C4.03029 10.2565 4.30633 10.0732 4.82162 9.88163Z" fill="white"/>
</svg>
