<svg width="20" height="20" viewBox="0 0 20 20" fill="none" xmlns="http://www.w3.org/2000/svg">
<g clip-path="url(#clip0_194_9683)">
<path fill-rule="evenodd" clip-rule="evenodd" d="M10 20C15.5228 20 20 15.5228 20 10C20 4.47715 15.5228 0 10 0C4.47715 0 0 4.47715 0 10C0 15.5228 4.47715 20 10 20Z" fill="#101010"/>
<path fill-rule="evenodd" clip-rule="evenodd" d="M16.3882 15.8336H13.877V11.5563C13.877 10.3836 13.4314 9.72821 12.5031 9.72821C11.4934 9.72821 10.9658 10.4102 10.9658 11.5563V15.8336H8.54565V7.6854H10.9658V8.78296C10.9658 8.78296 11.6935 7.43646 13.4226 7.43646C15.1509 7.43646 16.3882 8.49187 16.3882 10.6746V15.8336ZM5.65838 6.61847C4.83402 6.61847 4.16602 5.94522 4.16602 5.1149C4.16602 4.28457 4.83402 3.61133 5.65838 3.61133C6.48275 3.61133 7.15035 4.28457 7.15035 5.1149C7.15035 5.94522 6.48275 6.61847 5.65838 6.61847ZM4.40871 15.8336H6.93233V7.6854H4.40871V15.8336Z" fill="white"/>
</g>
<defs>
<clipPath id="clip0_194_9683">
<rect width="20" height="20" fill="white"/>
</clipPath>
</defs>
</svg>
