<svg width="20" height="20" viewBox="0 0 20 20" fill="none" xmlns="http://www.w3.org/2000/svg">
<path d="M2.40692 16.7265C-2.45394 11.4967 0.0888116 0.848591 9.66214 0.0478535C10.0998 0.0112492 10.379 0.580869 10.2536 1.00175C10.1554 1.33137 10.1321 1.71109 10.301 2.09081C10.4535 2.43369 10.6758 2.66411 10.9058 2.81896C11.2531 3.05286 11.5324 3.65052 11.3697 4.03634C10.9791 4.96229 10.7154 6.46019 12.1053 7.84054C13.2686 8.99589 15.1667 8.73252 16.0854 8.51381C16.3736 8.4452 16.6868 8.61364 16.8344 8.87058C17.0523 9.25029 17.4638 9.73633 18.1957 9.93135C18.5051 10.0138 18.7704 10.0563 18.9948 10.0734C19.4107 10.1051 19.9388 10.5403 19.8752 10.9526C18.2533 21.4697 7.30562 21.997 2.40692 16.7265Z" fill="#101010"/>
<circle cx="11.5" cy="13.5" r="1.5" fill="white"/>
<circle cx="7" cy="8" r="1" fill="white"/>
<circle cx="6" cy="13" r="1" fill="white"/>
<circle cx="16" cy="3" r="1" fill="#101010"/>
</svg>
