<svg width="20" height="20" viewBox="0 0 20 20" fill="none" xmlns="http://www.w3.org/2000/svg">
<g clip-path="url(#clip0_194_9677)">
<path d="M10 20.001C15.5228 20.001 20 15.5238 20 10.001C20 4.47813 15.5228 0.000976562 10 0.000976562C4.47715 0.000976562 0 4.47813 0 10.001C0 15.5238 4.47715 20.001 10 20.001Z" fill="#101010"/>
<path d="M13.8931 12.8923L14.3361 10.001H11.5629V8.12507C11.5629 7.33474 11.9496 6.5627 13.1928 6.5627H14.4542V4.10172C14.4542 4.10172 13.3095 3.90625 12.2154 3.90625C9.93163 3.90625 8.43816 5.29002 8.43816 7.7974V10.001H5.89844V12.8923H8.43816V19.8801C8.94724 19.9603 9.46896 20.001 10.0005 20.001C10.5321 20.001 11.0538 19.9588 11.5629 19.8801V12.8923H13.8931Z" fill="white"/>
</g>
<defs>
<clipPath id="clip0_194_9677">
<rect width="20" height="20" fill="white"/>
</clipPath>
</defs>
</svg>
